<?xml version="1.0" standalone="no"?>
<!DOCTYPE svg PUBLIC "-//W3C//DTD SVG 20010904//EN"
 "http://www.w3.org/TR/2001/REC-SVG-20010904/DTD/svg10.dtd">
<svg version="1.0" xmlns="http://www.w3.org/2000/svg"
 width="1024.000000pt" height="1024.000000pt" viewBox="0 0 1024.000000 1024.000000"
 preserveAspectRatio="xMidYMid meet">
<metadata>
Created by potrace 1.14, written by Peter Selinger 2001-2017
</metadata>
<g transform="translate(0.000000,1024.000000) scale(0.100000,-0.100000)"
fill="#000000" stroke="none">
<path d="M0 5120 l0 -5120 5120 0 5120 0 0 5120 0 5120 -5120 0 -5120 0 0
-5120z m5212 3601 c32 -34 38 -47 38 -83 0 -105 -95 -165 -195 -124 -51 22
-77 69 -72 133 6 83 61 127 147 119 36 -3 51 -11 82 -45z m-322 -70 c0 -27 5
-62 10 -77 6 -15 8 -29 6 -32 -3 -2 -58 -11 -123 -18 -636 -73 -1302 -345
-1782 -728 -241 -193 -500 -468 -677 -721 -342 -488 -534 -991 -599 -1575 -8
-74 -15 -138 -15 -141 0 -4 -24 -6 -52 -5 -29 0 -66 -3 -82 -7 l-28 -8 6 83
c56 699 276 1276 702 1843 544 726 1334 1212 2251 1385 117 22 295 47 351 49
32 1 32 1 32 -48z m696 19 c556 -79 1132 -307 1594 -632 560 -394 1032 -989
1270 -1601 123 -315 210 -691 226 -979 l7 -118 -34 7 c-19 5 -55 8 -81 8 l-47
0 -6 95 c-14 201 -89 555 -161 766 -174 506 -490 993 -897 1380 -409 389 -925
671 -1534 838 -141 39 -380 81 -516 92 -84 7 -88 8 -83 28 4 12 9 48 12 82 l7
60 56 -4 c31 -2 115 -12 187 -22z m-173 -296 c72 -20 149 -41 170 -46 23 -7
37 -17 38 -27 0 -12 3 -10 9 5 14 35 66 71 114 78 62 10 128 -19 157 -68 14
-25 28 -36 44 -36 62 0 364 -101 562 -187 186 -82 486 -258 538 -317 6 -7 28
-12 51 -12 110 1 163 -124 80 -190 l-33 -27 64 -86 c35 -47 76 -105 91 -128
26 -41 26 -41 77 -36 65 7 114 -13 151 -63 30 -39 37 -92 22 -159 -6 -28 -1
-35 80 -107 l87 -78 22 27 c30 37 116 45 155 13 33 -25 48 -73 37 -115 -10
-35 -52 -75 -80 -75 -16 0 -13 -10 26 -72 25 -40 45 -80 45 -90 0 -41 -22 -21
-81 72 -34 55 -65 100 -69 100 -21 0 -60 52 -60 80 0 16 -4 30 -9 30 -4 0 -49
36 -99 80 -137 122 -142 114 -61 -102 63 -166 124 -382 115 -405 -4 -9 4 -13
24 -13 33 0 93 -47 116 -91 17 -34 18 -89 1 -132 l-12 -32 79 -75 c43 -41 76
-67 73 -57 -4 10 -19 81 -33 158 -23 119 -29 139 -43 133 -34 -14 -51 -16 -51
-7 0 10 113 113 124 113 3 0 6 -11 6 -25 0 -14 -4 -25 -9 -25 -20 0 -20 -40
-1 -131 11 -52 23 -129 26 -172 l7 -77 124 -133 c69 -72 131 -133 139 -135 27
-6 25 28 -10 170 -41 167 -62 234 -118 381 l-41 107 -37 0 c-27 0 -43 7 -64
29 -36 37 -47 108 -22 146 79 120 263 11 201 -119 -10 -20 -21 -36 -26 -36
-16 0 -10 -24 30 -126 49 -125 139 -445 144 -511 1 -15 12 -24 39 -32 66 -20
99 -84 79 -152 -12 -41 -57 -79 -93 -79 -16 0 -18 -11 -18 -97 0 -54 -5 -155
-10 -225 l-9 -127 34 -34 c30 -30 35 -42 35 -80 0 -49 -33 -101 -73 -116 -17
-6 -21 -19 -25 -75 -2 -37 -10 -86 -18 -109 -13 -40 -14 -36 -10 71 6 149 -6
149 -99 -1 -74 -120 -264 -378 -323 -439 -32 -34 -34 -40 -24 -63 23 -49 15
-94 -22 -131 -21 -21 -44 -34 -59 -34 -35 0 -77 17 -95 38 -13 16 -13 16 -8
-1 4 -11 -13 -39 -53 -85 -83 -95 -199 -207 -207 -199 -9 9 58 88 194 229 54
55 55 57 56 118 1 56 4 64 34 91 18 16 38 29 45 29 7 0 13 8 14 18 15 182 36
329 50 342 14 14 15 6 9 -75 -11 -148 -28 -270 -39 -277 -6 -4 2 -10 18 -14
24 -6 31 -3 49 22 12 16 35 45 52 64 52 59 197 258 277 381 l75 116 -21 34
c-11 19 -21 35 -22 36 -1 2 -28 -10 -61 -26 -32 -16 -84 -36 -115 -46 -56 -18
-57 -19 -61 -60 -13 -109 -143 -171 -226 -107 -23 18 -24 18 -60 -17 -20 -20
-57 -54 -82 -76 -44 -40 -45 -42 -45 -102 -1 -50 -5 -66 -28 -97 -33 -42 -74
-66 -124 -70 -36 -3 -36 -4 -73 -103 -40 -105 -59 -143 -74 -143 -10 0 -9 6
43 148 l41 112 -24 11 c-33 15 -61 81 -58 137 3 71 63 142 121 142 12 0 21 1
21 3 0 1 9 65 19 142 11 77 22 181 26 231 l7 91 -31 31 c-40 39 -43 91 -6 127
13 14 31 25 39 25 12 0 13 6 6 28 -4 15 -11 78 -14 140 -4 62 -9 140 -13 173
-6 58 -6 59 -37 59 -17 0 -47 8 -66 18 l-35 17 -15 -27 c-8 -15 -42 -55 -75
-90 -181 -190 -186 -196 -179 -236 5 -31 1 -42 -20 -65 -69 -75 -180 19 -124
105 15 22 14 31 -13 113 -16 49 -29 95 -29 102 0 7 -7 13 -16 13 -25 0 -74 56
-74 85 0 14 11 37 25 50 74 75 182 -31 111 -108 -13 -14 -20 -29 -16 -34 12
-12 59 -173 52 -174 -4 0 2 -4 13 -9 41 -18 65 -11 103 32 20 24 83 93 139
154 l103 112 -15 29 c-20 38 -19 112 3 147 l17 29 -60 56 c-33 31 -105 97
-160 147 l-100 91 -23 -28 c-31 -39 -112 -64 -162 -51 l-38 9 -6 -37 c-3 -21
-13 -43 -22 -51 -14 -12 -15 -8 -9 37 4 27 9 51 11 53 1 1 -10 21 -26 42 -37
52 -45 103 -26 159 8 24 14 44 13 45 -6 1 -71 37 -152 85 -49 29 -174 95 -277
146 -104 52 -188 98 -188 103 0 6 4 13 10 16 22 14 581 -277 616 -320 16 -21
75 20 69 48 -19 87 -67 292 -68 292 -1 0 -23 10 -48 22 -55 26 -82 72 -77 136
l3 42 -70 44 c-38 24 -173 105 -300 179 -126 74 -244 145 -262 158 -17 13 -35
24 -38 24 -4 0 -55 29 -114 64 -58 35 -167 98 -241 141 -74 42 -144 86 -156
96 -20 19 -21 19 -34 -6 -29 -54 -126 -88 -191 -66 -19 6 -50 26 -69 44 l-35
32 -175 -101 c-96 -55 -210 -122 -252 -147 -42 -26 -85 -50 -95 -54 -10 -4
-40 -21 -68 -38 -27 -18 -117 -72 -200 -120 -82 -48 -207 -122 -277 -164
l-128 -76 0 -55 c0 -71 -24 -110 -81 -135 -24 -10 -45 -20 -46 -20 -4 -2 -63
-288 -63 -305 0 -9 14 -24 30 -33 17 -10 30 -14 30 -8 0 25 590 338 612 325
24 -15 -12 -39 -215 -141 -122 -62 -257 -136 -301 -163 -69 -45 -77 -53 -70
-73 4 -12 8 -47 8 -78 1 -46 -4 -62 -27 -93 -27 -34 -28 -41 -22 -99 5 -57 5
-61 -10 -42 -8 11 -18 37 -22 58 -4 28 -10 37 -20 33 -64 -25 -124 -11 -172
38 l-33 34 -46 -43 c-188 -170 -272 -248 -272 -253 0 -4 7 -16 15 -26 19 -26
19 -118 1 -155 -15 -27 -14 -29 36 -82 28 -30 93 -100 145 -156 92 -98 95
-101 124 -91 78 27 134 -100 64 -146 -71 -47 -148 18 -121 102 4 12 3 22 -2
22 -10 0 -151 142 -233 236 l-54 61 -34 -14 c-18 -8 -46 -15 -61 -15 -25 -1
-28 -5 -34 -52 -3 -28 -9 -115 -13 -193 -6 -130 -8 -143 -25 -143 -15 0 -18 8
-18 58 0 65 17 273 26 315 4 20 2 27 -9 27 -9 0 -34 21 -56 46 -24 28 -41 40
-41 31 0 -9 -35 -34 -89 -63 -84 -45 -88 -49 -78 -71 16 -35 -6 -94 -42 -116
-27 -16 -29 -22 -36 -98 -4 -44 -4 -161 0 -260 6 -155 5 -179 -8 -179 -21 0
-28 86 -28 318 l0 194 -34 33 c-26 24 -35 41 -35 64 0 49 26 91 60 98 27 5 30
9 30 44 0 46 25 229 44 317 7 34 10 62 6 62 -4 0 -23 11 -43 24 l-36 24 -47
-51 c-27 -29 -124 -130 -217 -226 -118 -122 -165 -177 -158 -184 16 -16 13
-94 -4 -127 -8 -16 -24 -31 -35 -35 -19 -6 -20 -15 -20 -159 0 -84 3 -187 6
-228 l7 -75 41 -9 c33 -7 44 -16 58 -44 l17 -35 1 40 c0 57 18 115 35 115 20
0 19 -14 -10 -100 -29 -88 -29 -86 -12 -87 6 -1 59 -20 117 -42 58 -23 106
-41 107 -41 1 0 11 15 22 34 60 96 226 77 261 -30 11 -34 10 -103 -3 -134 -4
-10 17 -34 65 -75 39 -33 77 -66 84 -73 12 -11 19 -9 45 12 17 14 37 26 45 26
17 0 17 7 4 85 -6 33 -17 129 -25 214 -12 124 -13 156 -3 163 9 5 8 8 -5 8
-28 0 -77 54 -77 85 0 33 24 81 45 89 36 13 76 6 101 -20 22 -21 25 -32 22
-69 -3 -43 -1 -46 79 -131 48 -51 79 -92 76 -100 -3 -8 -8 -14 -12 -14 -4 0
-46 40 -94 88 -51 53 -91 86 -98 82 -12 -8 1 -218 22 -360 5 -36 11 -76 12
-90 3 -16 12 -26 29 -31 43 -11 84 -40 103 -71 20 -35 24 -113 7 -154 -12 -28
-10 -32 33 -78 41 -44 57 -76 38 -76 -4 0 -30 23 -58 50 -35 34 -57 49 -67 45
-18 -7 -11 -34 47 -177 42 -104 25 -118 -22 -18 -21 47 -45 104 -53 128 -11
35 -17 42 -39 42 -41 0 -113 41 -138 79 -18 26 -23 49 -23 95 l0 61 -63 47
c-35 26 -73 58 -86 72 l-22 23 -37 -18 c-44 -23 -70 -24 -121 -3 -45 18 -86
71 -95 125 -6 33 -10 37 -64 53 -46 15 -122 47 -174 74 -5 2 -8 -2 -8 -8 0 -7
-9 -23 -20 -37 l-19 -25 92 -137 c92 -136 260 -359 312 -415 21 -22 24 -31 13
-37 -7 -5 -16 -8 -19 -6 -11 4 -141 161 -209 252 -78 105 -157 222 -190 283
-40 71 -53 57 -45 -45 3 -49 2 -99 -3 -112 -7 -20 -11 -12 -21 54 -7 43 -13
93 -13 112 0 21 -5 33 -14 33 -7 0 -28 12 -44 28 -58 51 -49 158 17 193 22 12
24 18 19 49 -4 19 -9 119 -13 222 l-6 188 -34 6 c-108 20 -114 179 -8 219 l40
16 38 154 c36 151 115 402 144 459 14 27 13 30 -14 58 -54 56 -31 142 49 184
39 20 60 17 103 -15 l39 -29 34 66 c19 37 43 77 55 90 l20 22 -25 0 c-16 0
-39 12 -57 31 -45 44 -44 98 3 145 29 29 41 34 81 34 39 0 52 -5 74 -29 l26
-29 55 52 c30 28 70 64 89 79 33 28 34 29 22 69 -19 61 -6 113 39 158 41 41
85 54 148 44 39 -6 39 -6 78 52 22 33 63 91 91 131 l52 72 -33 21 c-38 23 -46
37 -46 84 0 44 31 81 84 101 62 24 110 8 128 -41 6 -19 17 -34 23 -34 5 0 71
38 145 85 74 46 142 85 151 85 9 0 22 6 29 14 6 8 18 12 25 9 8 -2 28 5 44 16
51 37 274 131 310 131 11 0 22 15 31 42 20 56 67 88 129 88 47 0 107 -28 117
-54 5 -12 15 -10 57 10 29 13 60 24 70 24 22 0 22 13 -3 35 -10 9 -24 32 -30
50 l-11 32 -87 -18 c-340 -70 -741 -253 -963 -439 -33 -28 -49 -36 -60 -29
-11 8 -7 16 21 40 71 62 204 142 382 232 207 105 381 171 576 221 123 31 135
36 152 64 48 78 179 91 243 24 l27 -28 178 47 c188 51 207 55 197 39 -14 -23
-270 -112 -327 -114 -38 -1 -38 -1 -38 -45 0 -35 -6 -49 -33 -76 -39 -39 -100
-58 -155 -49 -32 5 -51 0 -106 -27 -60 -30 -86 -59 -53 -59 6 0 52 -5 101 -10
l88 -10 104 60 c57 33 132 74 166 90 l62 30 -82 -7 c-68 -5 -82 -4 -82 9 0 16
136 43 277 54 80 7 82 7 88 36 4 16 22 40 43 56 29 22 46 27 93 27 62 0 96
-21 124 -75 12 -23 24 -28 127 -44 212 -33 238 -39 238 -54 0 -12 -12 -14 -67
-8 l-68 6 65 -34 c36 -18 105 -59 153 -89 l89 -56 66 6 c92 7 133 16 134 28 0
6 -31 26 -70 45 -56 29 -76 34 -98 28 -90 -26 -194 45 -194 132 0 22 -5 30
-18 30 -54 0 -352 112 -352 132 0 6 7 8 15 4 8 -3 75 -22 148 -42z m-2413
-775 c0 -6 -35 -45 -78 -87 -313 -309 -382 -375 -388 -369 -17 16 162 207 375
400 72 66 91 77 91 56z m4352 -91 c187 -161 381 -368 345 -368 -7 0 -51 39
-97 86 -47 47 -136 131 -198 187 -104 93 -158 157 -133 157 6 0 43 -28 83 -62z
m-1818 -263 c73 -150 498 -1079 663 -1449 90 -203 173 -388 183 -410 69 -151
410 -912 495 -1106 57 -129 156 -350 219 -490 64 -140 114 -260 111 -268 -2
-7 -1 -11 4 -8 4 3 22 -25 39 -62 91 -198 122 -270 122 -278 0 -2 -166 -4
-368 -4 l-369 0 -31 68 c-17 37 -63 137 -102 222 -85 183 -97 208 -207 450
-47 102 -96 206 -109 233 l-24 47 -1041 0 -1040 0 -23 -52 c-13 -29 -45 -98
-71 -153 -26 -55 -60 -127 -75 -160 -15 -33 -43 -94 -63 -135 -36 -78 -70
-152 -117 -255 -60 -130 -78 -172 -98 -217 l-21 -48 -360 0 c-197 0 -366 -3
-375 -6 -26 -10 -19 16 37 137 86 182 108 231 134 289 45 100 65 143 135 295
39 83 85 184 103 225 18 41 46 104 63 140 17 36 74 160 126 276 52 116 109
242 127 280 50 109 364 813 439 984 37 85 141 315 230 510 89 195 207 454 262
574 55 121 124 271 153 333 l53 113 354 3 c194 1 364 3 378 2 21 0 31 -12 64
-80z m-2994 -181 c0 -11 -72 -95 -77 -90 -9 8 49 96 63 96 8 0 14 -3 14 -6z
m5209 -35 c13 -22 21 -42 18 -45 -6 -6 -67 64 -67 76 0 24 28 6 49 -31z
m-5325 -1091 c-3 -13 -18 -50 -31 -83 -46 -109 -110 -298 -138 -407 -23 -90
-31 -108 -47 -108 -17 0 -19 5 -13 33 29 131 134 445 181 540 25 49 62 68 48
25z m1131 -190 c20 -23 25 -38 20 -57 -8 -33 -43 -71 -66 -71 -12 0 -20 -11
-24 -32 -18 -84 -47 -158 -60 -158 -20 0 -19 10 8 111 22 84 23 87 5 109 -10
12 -18 37 -18 56 0 75 85 102 135 42z m-1724 -395 c-9 -15 -10 -12 -11 17 0
19 4 46 8 60 6 21 7 19 10 -17 2 -24 -1 -51 -7 -60z m6586 9 c0 -41 -12 -22
-20 32 -6 35 -5 37 7 20 7 -10 13 -34 13 -52z m-6208 -42 c10 -5 24 -23 31
-40 11 -28 11 -34 -7 -58 -35 -47 -94 -42 -112 8 -22 64 32 120 88 90z m-494
-80 c58 -36 81 -119 50 -180 -45 -86 -160 -104 -226 -34 -20 22 -24 36 -24 94
0 59 3 72 25 95 14 15 34 31 45 35 36 16 97 11 130 -10z m6946 -3 c18 -12 39
-34 46 -47 18 -36 16 -107 -4 -141 -19 -32 -85 -69 -122 -69 -67 0 -131 69
-131 142 0 108 123 175 211 115z m-6772 -179 c0 -10 -3 -18 -9 -18 -5 0 -9 21
-9 48 1 42 2 44 9 17 4 -16 8 -38 9 -47z m5437 51 c6 -11 -152 -179 -168 -179
-23 0 0 41 63 111 69 77 91 91 105 68z m1031 -36 c-3 -10 -5 -2 -5 17 0 19 2
27 5 18 2 -10 2 -26 0 -35z m-5148 -129 c35 -45 24 -92 -28 -113 -23 -10 -34
-26 -51 -74 -26 -73 -40 -93 -51 -76 -7 11 26 126 41 143 5 4 -1 17 -11 27
-33 33 -21 97 21 112 34 12 60 6 79 -19z m3928 -1 c19 -24 16 -70 -5 -90 -17
-17 -16 -21 5 -81 26 -72 28 -92 10 -92 -7 0 -24 29 -37 65 -18 47 -35 74 -62
96 -45 35 -51 76 -17 110 17 17 29 20 58 15 20 -3 42 -13 48 -23z m1533 -218
c-51 -556 -214 -1050 -498 -1505 -107 -172 -269 -383 -285 -373 -6 4 -7 1 -2
-6 9 -15 -63 -93 -78 -84 -6 3 -7 1 -3 -6 9 -13 -268 -294 -374 -380 -36 -29
-73 -59 -83 -67 -10 -8 -23 -12 -29 -8 -6 4 -8 3 -4 -4 3 -6 -6 -20 -21 -32
-141 -108 -395 -268 -583 -367 -14 -7 -34 -10 -45 -7 -13 3 -16 2 -8 -3 12 -8
-32 -32 -167 -91 -213 -92 -652 -220 -710 -207 -16 4 -20 3 -12 -3 9 -6 -2
-11 -35 -15 -58 -6 -67 -2 -22 12 19 5 26 10 17 10 -9 1 -25 4 -35 7 -13 4
-14 3 -5 -4 17 -12 -51 -46 -79 -39 -10 3 -17 2 -14 -2 4 -7 -199 -32 -238
-29 -15 1 -17 11 -16 75 2 83 -6 77 112 88 51 5 67 4 67 -6 0 -9 4 -8 13 3 18
22 205 52 241 38 40 -15 56 -11 21 5 -30 13 -30 13 -5 15 45 4 65 8 83 15 10
4 17 3 17 -4 0 -11 -18 -15 -55 -13 -19 2 -19 1 -1 -9 13 -8 25 -8 43 0 34 16
38 14 39 -14 2 -26 -5 -31 -22 -17 -5 5 -20 6 -34 1 -23 -6 -23 -7 8 -8 18 -1
31 -4 29 -8 -3 -5 13 -8 36 -8 45 0 58 16 29 37 -10 7 -21 21 -25 31 -3 9 -10
17 -14 16 -33 -5 -19 5 22 16 28 8 61 11 75 9 19 -4 21 -3 11 5 -12 8 -9 11
15 16 45 10 326 105 357 122 16 8 35 12 43 9 8 -3 13 -2 11 2 -3 4 53 35 124
69 71 34 128 57 126 51 -1 -6 5 -13 13 -15 10 -3 11 -2 3 4 -7 5 -9 14 -5 20
12 19 113 74 124 67 7 -5 8 -2 3 6 -6 10 -4 12 9 7 10 -4 15 -3 11 3 -8 13 41
43 56 34 7 -4 9 -3 6 3 -4 6 17 25 46 43 44 28 312 224 327 240 34 36 149 128
155 122 3 -4 5 -2 3 4 -4 15 79 97 91 90 5 -3 8 2 7 12 0 10 6 16 16 16 10 -1
16 3 15 9 -1 6 3 11 10 12 6 0 15 4 20 9 5 5 3 6 -4 2 -24 -14 -13 10 18 40
17 16 64 68 104 116 40 48 76 84 80 80 5 -4 5 -2 2 5 -4 6 -1 17 6 25 71 74
262 367 332 510 26 51 50 100 55 109 19 36 105 251 137 344 72 208 139 532
163 790 5 61 10 113 10 118 0 4 26 7 58 8 31 0 66 4 77 8 28 11 30 -14 15
-174z m-7018 165 c66 0 58 18 77 -178 35 -354 129 -704 283 -1052 35 -78 149
-297 178 -340 9 -14 41 -61 70 -105 55 -82 205 -280 248 -327 14 -16 21 -31
17 -39 -5 -7 -4 -10 3 -6 5 4 75 -57 154 -136 157 -157 198 -194 305 -275 40
-30 70 -59 66 -65 -3 -6 -1 -7 5 -3 6 4 20 -2 32 -14 11 -11 24 -20 28 -20 15
0 42 -36 35 -45 -5 -4 -2 -5 4 -1 17 9 55 -12 47 -26 -4 -7 -3 -8 4 -4 6 4 24
-2 39 -12 186 -127 415 -247 620 -326 46 -18 80 -36 76 -40 -4 -4 -1 -5 7 -2
20 8 143 -38 133 -49 -5 -4 -3 -5 4 -1 7 4 67 -9 135 -29 67 -19 129 -35 137
-35 8 0 23 -8 34 -18 13 -10 17 -11 12 -3 -6 11 -4 13 11 7 10 -5 60 -15 109
-23 50 -8 101 -17 115 -20 l25 -6 -25 -8 c-17 -6 -9 -7 24 -3 33 4 46 2 41 -5
-9 -15 28 -14 44 2 8 7 15 8 17 2 2 -6 28 -9 57 -7 61 4 59 7 57 -91 -1 -40 2
-57 9 -52 6 3 11 1 11 -4 0 -16 -63 -13 -86 4 -10 8 -28 14 -39 14 -17 -1 -16
-2 5 -10 18 -6 12 -7 -24 -4 -27 3 -64 5 -83 5 -23 0 -32 4 -27 12 4 6 3 8 -4
4 -9 -5 -96 4 -162 18 -14 3 -50 11 -80 16 -126 25 -515 141 -506 151 3 2 -5
5 -17 6 -35 2 -102 34 -89 42 7 4 -3 7 -21 7 -41 0 -410 181 -400 197 3 6 1 7
-6 3 -6 -4 -24 0 -39 10 -15 10 -43 27 -62 38 -19 10 -37 21 -40 25 -3 3 -16
12 -30 19 -14 7 -60 38 -103 68 -73 52 -77 57 -60 70 17 14 16 14 -5 4 -18 -9
-28 -7 -52 10 -17 12 -28 26 -25 31 4 5 0 6 -8 3 -9 -3 -22 4 -31 18 -9 12
-16 19 -16 15 0 -4 -11 3 -25 15 -13 11 -22 24 -20 28 3 4 -3 7 -13 6 -9 0
-16 5 -14 12 1 6 -1 11 -6 10 -13 -5 -64 41 -57 51 3 6 0 8 -8 5 -21 -8 -328
301 -446 449 -332 419 -550 874 -666 1392 -34 151 -62 346 -70 478 -3 56 -8
113 -11 126 -4 21 -2 23 18 17 13 -3 49 -6 80 -6z m290 -293 c15 -79 46 -204
68 -277 22 -74 40 -140 40 -146 0 -6 15 -15 34 -18 77 -15 113 -114 62 -173
l-24 -28 49 -96 c27 -53 49 -99 49 -102 0 -3 22 -44 50 -92 27 -47 46 -83 41
-80 -5 3 -11 -1 -14 -7 -2 -7 -7 -11 -10 -8 -15 14 -177 342 -177 359 0 17 -6
21 -37 21 -41 1 -59 11 -86 50 -28 40 -22 87 16 125 23 23 31 38 25 47 -17 27
-87 257 -107 353 -31 153 -37 215 -20 215 11 0 22 -39 41 -143z m6402 106
c-11 -86 -27 -173 -45 -248 -30 -120 -89 -295 -101 -295 -14 0 -7 36 36 173
20 65 48 183 63 263 17 93 31 144 39 144 9 0 11 -12 8 -37z m-5789 -253 c12
-130 12 -166 2 -172 -7 -5 -1 -8 16 -8 58 0 111 -84 90 -140 -11 -29 -16 -22
183 -233 63 -66 89 -107 69 -107 -15 0 -256 256 -270 287 -1 2 -20 -4 -42 -13
-39 -15 -40 -18 -32 -48 6 -25 49 -327 49 -350 0 -3 -7 -6 -15 -6 -8 0 -15 3
-15 6 0 3 -9 62 -19 132 -11 70 -22 157 -26 194 -5 54 -10 68 -25 73 -62 20
-82 125 -32 174 15 15 33 30 40 32 11 4 11 31 -2 157 -9 84 -16 167 -16 184 0
29 2 31 15 17 10 -10 19 -63 30 -179z m-363 -66 c92 -250 196 -468 303 -630
69 -103 73 -114 51 -114 -14 0 -96 118 -163 235 -94 163 -208 439 -252 608 -7
29 -7 37 2 34 7 -2 33 -62 59 -133z m5903 94 c-6 -67 -115 -359 -188 -503 -49
-98 -162 -281 -193 -315 -21 -23 -22 -29 -11 -67 10 -38 9 -46 -9 -70 -30 -40
-69 -52 -103 -32 -27 16 -28 15 -47 -12 -10 -15 -20 -26 -23 -24 -2 3 4 14 14
25 14 15 18 34 16 73 -1 41 3 57 19 75 11 12 27 22 34 22 9 0 15 18 19 53 4
45 27 205 43 305 3 17 11 32 17 32 10 0 11 -21 5 -90 -11 -129 -35 -270 -49
-286 -9 -11 -7 -14 12 -13 42 0 201 267 294 489 15 36 36 85 47 110 17 36 98
258 98 268 0 1 2 2 4 2 3 0 3 -19 1 -42z m-895 -141 c0 -7 -22 -35 -50 -62
-38 -37 -50 -45 -50 -31 0 11 16 39 36 62 34 43 64 57 64 31z m1005 -189 c60
-27 74 -120 26 -169 -28 -28 -43 -33 -86 -30 -14 1 -21 -5 -22 -18 -2 -24
-111 -254 -152 -321 -28 -46 -29 -49 -12 -64 21 -19 38 -72 33 -103 -2 -12
-16 -36 -32 -53 -23 -25 -36 -30 -73 -30 -69 0 -102 32 -102 98 0 42 5 56 29
81 18 19 45 34 70 38 l40 8 95 188 95 187 -22 23 c-49 52 -29 141 38 164 45
15 44 15 75 1z m-3010 -211 c47 -27 83 -77 91 -127 l6 -36 120 13 c218 23 451
73 622 133 46 16 61 17 67 8 10 -16 -2 -23 -94 -54 -241 -83 -694 -160 -718
-123 -7 11 -9 10 -9 -5 0 -28 -44 -81 -83 -100 -76 -35 -157 -14 -211 57 -25
33 -29 34 -110 40 -170 14 -374 55 -607 124 -102 30 -129 42 -129 55 0 10 2
18 5 18 3 0 72 -20 153 -44 182 -54 307 -80 497 -102 158 -19 164 -17 165 32
0 57 96 134 165 134 16 0 48 -10 70 -23z m-2530 -316 c24 -26 27 -36 22 -67
-4 -21 -3 -43 1 -48 5 -6 14 -24 21 -41 l12 -30 -28 34 c-25 30 -32 32 -50 22
-32 -16 -57 -14 -87 10 -20 16 -26 29 -26 58 0 86 78 121 135 62z m2475 -81
c0 -62 -3 -80 -14 -80 -11 0 -15 19 -18 76 -3 80 -2 84 19 84 10 0 13 -20 13
-80z m-1143 29 c58 -25 305 -119 315 -119 3 0 15 15 26 34 23 39 92 76 142 76
89 0 161 -75 164 -170 1 -36 5 -48 16 -48 8 0 78 -7 155 -16 77 -9 146 -16
153 -16 6 0 12 -7 12 -17 0 -14 -11 -15 -102 -9 -57 3 -134 13 -172 20 l-69
13 -31 -35 c-52 -60 -119 -76 -189 -47 -61 25 -107 92 -107 154 0 25 -8 29
-122 70 -165 58 -258 101 -258 117 0 19 10 18 67 -7z m2331 9 c-5 -15 -88 -51
-268 -117 -119 -44 -125 -47 -128 -76 -8 -64 -46 -121 -100 -149 -64 -33 -145
-12 -202 54 l-25 29 -130 -20 c-71 -11 -150 -19 -175 -17 -43 3 -46 1 -64 -34
-14 -30 -28 -41 -66 -55 -41 -14 -47 -20 -39 -34 5 -10 9 -81 9 -158 0 -119
-2 -141 -15 -141 -13 0 -15 24 -15 158 l0 158 -35 13 c-71 25 -106 121 -69
192 20 40 89 71 135 63 42 -8 95 -57 110 -101 6 -18 16 -33 22 -33 7 0 79 9
161 20 82 11 153 17 157 14 5 -3 9 19 9 49 0 160 203 227 298 98 14 -20 27
-37 27 -38 2 -4 279 94 325 115 52 24 84 28 78 10z m-3921 -23 c12 -8 29 -34
38 -58 14 -38 15 -48 2 -78 -13 -33 -13 -35 38 -109 28 -41 61 -90 75 -108 16
-22 21 -35 14 -42 -11 -11 -111 115 -141 176 -14 29 -18 31 -59 26 -61 -6 -86
3 -111 41 -36 53 -26 113 27 154 21 17 91 16 117 -2z m5376 -251 c-22 -33 -65
-96 -97 -141 l-56 -82 22 -45 c19 -40 20 -49 9 -86 -9 -32 -23 -48 -59 -71
-25 -16 -55 -29 -66 -29 -33 0 -102 47 -116 79 -38 92 54 195 161 179 20 -2
34 11 84 82 105 149 139 190 148 181 5 -5 -7 -33 -30 -67z m-1883 -87 c0 -6 3
-7 6 -4 6 6 18 -2 97 -65 28 -23 35 -38 16 -38 -5 0 -7 5 -4 11 4 6 0 9 -9 7
-9 -2 -43 19 -76 46 -58 48 -76 71 -45 60 8 -4 15 -11 15 -17z m-1576 -18
c-10 -11 -33 -27 -50 -34 -41 -17 -58 -49 -55 -102 3 -51 -11 -78 -52 -103
-63 -39 -145 -12 -173 57 -14 33 -14 40 1 80 21 54 52 76 110 77 36 1 49 -5
75 -29 29 -28 32 -29 41 -12 13 22 110 99 117 92 3 -3 -3 -14 -14 -26z m1914
-65 c56 -65 37 -145 -44 -185 -52 -25 -81 -19 -124 26 -62 64 -47 157 29 190
54 23 100 13 139 -31z m-3644 4 c-4 -6 -2 -8 4 -4 6 3 15 -2 21 -11 7 -13 22
-18 59 -18 114 0 191 -127 122 -201 -50 -53 -98 -65 -153 -39 -70 33 -96 118
-57 183 l20 33 -20 30 c-20 27 -19 56 1 43 5 -3 6 -10 3 -16z m1373 -64 c-8
-8 -33 7 -46 28 -13 20 -12 20 19 -2 17 -12 29 -24 27 -26z m-866 -80 c12 -15
80 -68 245 -192 24 -18 44 -29 44 -25 0 5 -9 42 -20 83 -23 89 -24 100 -7 100
12 0 31 -60 61 -185 4 -21 27 -55 36 -55 11 0 97 -58 105 -71 4 -5 -19 5 -49
22 -52 28 -56 29 -56 11 0 -11 11 -44 24 -72 14 -29 22 -60 19 -69 -4 -9 -3
-13 2 -9 4 4 17 -7 29 -25 16 -24 59 -51 181 -112 198 -99 297 -144 333 -151
15 -3 43 -19 62 -35 l35 -30 -35 15 c-19 8 -66 26 -105 41 -97 38 -411 191
-419 204 -4 6 -12 11 -17 11 -11 0 30 -82 44 -88 4 -2 7 -12 7 -23 0 -10 7
-19 15 -19 14 0 20 -12 16 -33 -1 -4 5 -15 14 -23 12 -12 15 -12 16 -2 0 10 2
10 6 1 3 -8 14 -11 29 -7 49 13 94 -23 114 -89 6 -21 132 -73 272 -113 49 -13
111 -33 138 -44 l50 -20 1 38 c0 32 16 92 18 69 1 -5 14 1 29 12 23 16 32 18
41 8 10 -9 12 -9 9 3 -2 12 8 15 47 16 55 1 78 -7 114 -43 19 -19 25 -36 28
-84 3 -59 2 -62 -32 -95 -66 -62 -159 -55 -217 16 -26 34 -43 44 -102 60 -225
64 -370 117 -389 144 -6 8 -10 7 -14 -3 -14 -35 -52 -61 -91 -61 -78 0 -127
83 -86 145 15 23 15 27 0 50 -19 29 -20 39 -4 29 7 -4 8 -3 4 5 -4 6 -12 9
-17 6 -5 -3 -34 33 -65 80 -30 47 -67 92 -80 100 -13 8 -36 22 -50 31 -14 8
-23 18 -20 21 3 3 12 1 19 -5 8 -7 16 -9 20 -6 3 3 17 -2 31 -12 15 -9 29 -14
33 -10 3 3 1 6 -6 6 -12 0 -50 77 -80 162 -13 38 -28 55 -86 98 -38 29 -78 56
-88 62 -11 6 -16 16 -13 25 4 11 2 13 -9 9 -8 -3 -15 -1 -15 4 0 6 -3 9 -7 8
-8 -3 -77 44 -127 86 -16 13 -25 29 -22 35 10 15 21 14 37 -5z m793 -49 c282
-142 594 -231 984 -280 43 -6 52 -10 52 -26 0 -18 -5 -19 -52 -13 -306 36
-640 123 -881 230 -91 40 -97 42 -92 21 2 -12 9 -49 15 -82 14 -73 41 -178 69
-265 24 -76 23 -70 12 -70 -20 0 -81 184 -101 305 -28 164 -18 145 -93 183
-37 19 -67 40 -67 48 0 23 20 17 154 -51z m2611 46 c0 -7 -34 -30 -75 -50
l-75 -38 -7 -72 c-9 -81 -60 -287 -85 -341 -25 -54 -28 -13 -4 67 29 98 51
197 60 270 4 34 7 63 6 63 -1 0 -32 -14 -69 -30 -213 -97 -518 -182 -806 -225
-130 -20 -140 -19 -140 4 0 16 10 20 63 26 321 33 705 142 974 276 69 34 128
57 134 53 8 -5 9 -3 4 6 -5 8 -3 11 6 8 8 -3 14 -10 14 -17z m655 -14 c-75
-58 -263 -197 -292 -217 -32 -21 -43 -39 -73 -121 -39 -106 -39 -109 -25 -109
20 0 317 193 562 364 56 39 74 43 63 15 -6 -16 -439 -302 -572 -379 -71 -40
-101 -64 -128 -101 -19 -27 -35 -52 -35 -55 0 -4 -20 -34 -44 -69 -42 -59 -44
-63 -29 -84 8 -12 13 -31 10 -42 -3 -11 -1 -17 5 -13 6 4 8 -2 3 -17 -18 -58
-93 -101 -136 -78 -72 38 -88 96 -41 146 27 30 101 51 124 37 6 -4 8 -3 5 3
-4 6 20 48 53 94 75 105 79 122 16 76 -40 -29 -231 -123 -376 -185 -63 -27
-153 -70 -199 -96 -46 -25 -86 -45 -88 -43 -7 7 123 84 212 126 517 243 512
241 554 326 47 98 64 155 46 155 -8 0 -16 -4 -20 -9 -3 -5 -31 -23 -63 -40
-51 -27 -54 -28 -27 -6 17 14 34 25 39 25 5 0 24 11 43 26 18 14 37 23 42 20
7 -5 31 66 61 180 5 23 17 45 25 48 17 6 16 -4 -11 -103 -9 -29 -13 -55 -11
-58 5 -5 74 36 98 59 29 26 83 61 95 61 7 0 11 4 9 8 -3 4 18 26 47 48 37 30
54 39 62 31 8 -8 7 -15 -4 -23z m-4220 -116 c3 -3 12 -10 21 -16 13 -8 160
-105 376 -249 18 -11 29 -24 24 -29 -19 -19 -540 331 -526 354 5 7 86 -39 105
-60z m2273 -41 c39 -23 84 -106 86 -160 1 -36 -38 -108 -75 -136 -76 -58 -192
-33 -252 54 -35 53 -37 59 -21 130 12 57 63 117 113 132 41 12 110 3 149 -20z
m-2313 -110 c61 -55 116 -100 122 -100 6 0 8 -3 5 -7 -4 -3 10 -18 31 -31 20
-14 41 -31 45 -39 5 -7 12 -11 17 -8 5 3 12 1 15 -5 10 -16 209 -160 221 -160
3 0 26 -14 51 -30 24 -17 61 -39 81 -49 20 -10 46 -29 57 -41 17 -19 12 -18
-38 9 -31 17 -75 42 -97 56 -22 14 -42 25 -45 25 -6 0 -76 46 -179 117 -118
82 -337 267 -391 331 -51 60 -7 32 105 -68z m4518 54 c-64 -70 -235 -217 -348
-300 -138 -101 -401 -259 -420 -252 -5 2 64 48 153 103 198 122 395 267 505
373 13 12 28 19 34 16 7 -4 8 -2 4 4 -4 6 15 28 45 52 63 49 71 51 27 4z
m-2444 -259 c-6 -16 -164 -110 -291 -174 -92 -46 -93 -46 -93 -28 0 6 40 32
88 57 48 24 119 63 157 86 130 77 148 85 139 59z m300 8 c4 -5 11 -8 14 -8 18
-1 91 -53 85 -60 -5 -4 -2 -5 5 -1 7 5 21 2 30 -7 16 -13 139 -83 205 -116 30
-15 36 -31 10 -31 -41 0 -373 201 -373 226 0 7 16 5 24 -3z m-1199 -89 c46
-22 41 -24 -16 -8 -21 6 -22 4 -16 -36 l5 -42 -29 33 c-28 31 -36 58 -22 72
11 11 25 8 78 -19z m1058 -135 c1 -84 -2 -150 -8 -159 -14 -21 -21 57 -17 204
4 166 22 135 25 -45z m1105 139 c2 -9 -4 -23 -13 -31 -8 -9 -15 -20 -15 -26 0
-5 -4 -12 -9 -16 -6 -3 -8 9 -4 29 l5 35 -63 -19 c-35 -11 -64 -18 -66 -17 -5
5 141 65 152 62 6 -1 11 -9 13 -17z m-1688 -103 c40 -21 41 -65 4 -94 -34 -27
-58 -27 -86 1 -27 27 -28 73 -2 93 25 19 48 19 84 0z m1217 -9 c24 -21 26 -27
18 -52 -12 -32 -56 -58 -83 -50 -9 4 -27 21 -39 40 -23 37 -19 52 22 74 31 17
51 14 82 -12z m-804 -86 c51 1 87 -2 87 -8 0 -6 10 -8 23 -6 l22 5 -22 -10
c-28 -13 -264 5 -278 21 -7 7 3 8 35 3 25 -4 84 -6 133 -5z m437 0 c-18 -10
-218 -26 -209 -16 4 4 51 11 105 15 55 5 104 9 109 9 6 1 3 -3 -5 -8z m-1186
-82 c-5 -8 -2 -9 9 -5 9 3 19 2 21 -2 4 -7 -28 -8 -42 -2 -5 2 8 21 14 21 3 0
2 -5 -2 -12z m1633 -14 c13 -4 20 -10 17 -15 -3 -5 1 -6 8 -4 17 7 62 -40 53
-54 -3 -6 -1 -11 5 -11 7 0 9 -7 6 -16 -4 -10 -2 -13 6 -8 8 5 9 0 5 -17 -4
-13 -7 -29 -7 -35 0 -6 -17 -30 -38 -52 -52 -55 -115 -66 -180 -32 -46 25 -67
52 -58 76 3 9 1 12 -4 9 -16 -10 -12 63 5 95 15 29 24 34 55 31 12 -2 13 0 1
7 -32 22 66 42 126 26z m543 -13 c0 -17 -240 -101 -287 -101 -13 0 -23 -3 -23
-8 0 -10 -110 -35 -118 -27 -11 11 18 22 46 18 18 -3 23 -2 14 4 -15 11 84 37
100 26 7 -4 8 -1 3 7 -6 10 -3 12 13 8 12 -4 20 -3 18 1 -3 4 39 21 92 38 53
18 104 34 112 37 24 7 30 7 30 -3z m-1243 -17 c13 -4 20 -10 17 -15 -3 -5 2
-6 10 -3 21 8 76 -75 66 -101 -4 -11 -6 -23 -4 -26 2 -4 -12 -23 -32 -43 -31
-32 -41 -36 -85 -36 -45 0 -55 4 -86 35 -26 26 -33 40 -28 56 5 16 4 19 -5 14
-10 -6 -11 -1 -6 20 9 36 36 72 61 81 11 4 29 10 40 14 27 11 27 11 52 4z
m-448 -69 c28 9 281 -25 281 -38 0 -6 -34 -8 -97 -3 -129 9 -215 27 -220 46
-4 12 -3 12 5 1 6 -8 18 -11 31 -6z m854 -12 c-37 -15 -215 -38 -235 -30 -7 3
3 6 22 7 32 2 33 3 10 10 -21 7 -22 8 -5 10 11 0 63 7 115 14 106 14 143 10
93 -11z m-934 -103 c21 0 280 -86 290 -96 3 -3 -3 -4 -14 -1 -11 3 -60 17
-110 31 -118 33 -189 61 -191 75 -2 7 0 7 3 1 2 -5 13 -10 22 -10z m943 -26
c-42 -18 -204 -65 -209 -61 -4 5 207 75 227 75 8 0 0 -6 -18 -14z m-390 -174
c15 -7 25 -17 22 -21 -3 -5 -1 -9 5 -9 6 0 17 -13 26 -29 17 -34 7 -108 -14
-103 -7 1 -10 -1 -7 -6 9 -15 -11 -34 -37 -35 -14 -1 -23 -5 -20 -9 6 -11 -41
-10 -72 2 -35 13 -62 40 -74 73 -14 36 -14 50 0 41 8 -5 10 1 7 20 -7 35 42
91 72 83 11 -3 18 -1 14 4 -7 13 46 5 78 -11z"/>
<path d="M5909 8210 c-7 -22 -18 -45 -26 -51 -18 -16 -16 -29 5 -29 9 0 39
-11 67 -23 l50 -23 31 33 c28 30 37 33 89 33 52 0 60 -3 91 -34 19 -19 37 -48
40 -65 4 -21 12 -31 24 -31 26 0 141 -45 255 -100 55 -26 116 -53 136 -59 20
-6 58 -26 85 -43 99 -63 225 -138 232 -138 13 0 51 80 39 80 -7 0 -23 10 -37
21 -47 38 -225 156 -290 192 -77 42 -267 125 -399 173 -79 29 -348 104 -372
104 -5 0 -14 -18 -20 -40z"/>
<path d="M5251 8213 c-1 -29 -43 -77 -81 -93 l-30 -12 0 -89 c0 -80 2 -89 18
-89 11 0 37 -13 59 -29 l41 -30 78 31 c96 37 249 85 301 93 70 12 71 15 13 51
-99 62 -318 164 -354 164 -19 0 -37 6 -39 13 -3 6 -6 2 -6 -10z"/>
<path d="M4934 8209 c-60 -11 -394 -182 -381 -196 3 -2 65 -22 138 -44 74 -22
169 -55 212 -74 71 -30 78 -32 90 -16 19 27 59 51 84 51 22 0 23 3 23 88 l0
88 -42 19 c-27 13 -50 33 -63 55 -19 35 -22 36 -61 29z"/>
<path d="M5965 7999 c-11 -4 -49 -8 -85 -9 l-65 -1 31 -27 c17 -15 73 -61 124
-102 l92 -75 57 3 c75 5 122 -15 160 -68 16 -22 32 -36 35 -31 4 5 35 19 71
31 36 12 65 25 65 28 -1 4 -56 45 -124 90 -112 76 -126 83 -146 72 -13 -7 -44
-10 -72 -8 -53 6 -92 33 -112 79 -9 21 -15 24 -31 18z"/>
<path d="M4237 7972 c-28 -59 -105 -86 -175 -61 -26 9 -37 8 -62 -8 -50 -30
-230 -156 -228 -158 2 -1 38 -14 81 -29 l78 -26 37 39 c43 46 102 65 167 55
43 -6 45 -5 127 63 46 37 101 82 123 98 l40 30 -40 6 c-118 19 -134 18 -148
-9z"/>
<path d="M3920 7958 c-195 -91 -283 -134 -292 -145 -6 -7 -8 -13 -5 -13 4 0
28 -9 55 -19 l50 -20 105 72 c58 40 119 80 137 89 27 15 29 20 20 38 -13 24
-13 24 -70 -2z"/>
<path d="M4458 7952 c-18 -15 -71 -58 -118 -94 -90 -69 -140 -118 -123 -118 6
0 68 11 139 24 159 30 356 55 499 64 l108 7 -119 42 c-117 42 -321 103 -342
103 -6 0 -26 -13 -44 -28z"/>
<path d="M5630 7954 c-52 -14 -146 -43 -210 -64 -63 -21 -124 -41 -135 -43
-11 -2 16 -7 60 -11 179 -16 407 -47 520 -71 173 -35 192 -33 138 17 -52 47
-255 198 -267 198 -6 -1 -54 -12 -106 -26z"/>
<path d="M6246 7964 c-11 -28 -7 -32 57 -70 34 -20 92 -59 130 -86 l67 -50 55
23 c30 12 55 26 55 31 0 10 -107 64 -243 122 -59 25 -109 46 -111 46 -2 0 -7
-7 -10 -16z"/>
<path d="M4825 7789 c-204 -22 -508 -68 -567 -85 -14 -4 -16 -9 -8 -24 13 -25
13 -93 -1 -124 -11 -23 -8 -29 27 -61 40 -36 118 -95 128 -95 2 0 31 17 63 38
55 37 217 133 386 230 42 24 83 42 90 39 9 -3 11 8 9 44 -4 55 7 52 -127 38z"/>
<path d="M5288 7763 l-3 -38 90 -51 c50 -28 124 -71 165 -96 41 -25 113 -67
159 -94 46 -27 94 -59 108 -72 l25 -23 45 38 c25 21 63 52 84 68 30 23 37 34
32 50 -4 11 -7 50 -7 87 l-1 68 -55 11 c-30 6 -71 14 -90 19 -60 15 -487 70
-540 70 -5 0 -10 -17 -12 -37z"/>
<path d="M3520 7762 c-36 -15 -107 -49 -157 -75 -51 -26 -99 -47 -107 -47 -8
0 -23 -15 -34 -34 -12 -20 -34 -39 -54 -46 -28 -10 -53 -39 -127 -147 -98
-141 -110 -166 -91 -178 10 -6 406 251 646 420 39 28 80 55 90 61 18 11 17 13
-9 23 -15 6 -37 20 -49 31 -27 25 -29 25 -108 -8z"/>
<path d="M6625 7780 c-4 -7 -28 -21 -52 -32 l-45 -20 49 -32 c26 -18 127 -86
223 -151 392 -266 465 -313 477 -308 26 10 11 43 -77 165 -49 69 -90 130 -90
136 0 5 -16 13 -35 16 -28 6 -40 15 -52 41 -9 19 -26 38 -37 41 -12 4 -85 37
-163 75 -158 76 -187 86 -198 69z"/>
<path d="M3685 7673 c-114 -81 -599 -408 -651 -438 -53 -30 -53 -30 -47 -71 7
-54 -10 -103 -47 -139 -25 -24 -41 -30 -93 -33 l-62 -4 -63 -192 c-34 -105
-69 -225 -78 -266 -8 -41 -17 -83 -18 -92 -8 -38 13 -15 59 64 91 156 346 493
369 485 22 -7 15 -28 -32 -83 -77 -94 -234 -311 -295 -409 -40 -66 -52 -93
-45 -102 18 -22 38 -15 137 51 53 36 218 136 366 224 149 88 278 166 288 174
14 11 16 22 11 59 l-6 46 -187 27 c-102 15 -192 31 -199 35 -16 9 181 198 323
311 140 110 463 320 493 320 26 0 10 19 -20 25 -18 4 -58 17 -88 29 l-55 23
-60 -44z m-636 -639 c12 -9 19 -20 14 -25 -12 -12 -83 12 -83 28 0 18 41 16
69 -3z"/>
<path d="M6391 7681 l-73 -27 48 -31 c27 -16 78 -47 114 -69 184 -108 348
-230 511 -381 122 -112 166 -161 147 -167 -17 -6 -248 -43 -319 -51 l-55 -7
-11 -49 -10 -50 71 -41 c152 -88 475 -284 556 -338 156 -104 151 -101 178 -79
l24 19 -88 127 c-103 150 -186 261 -266 357 -60 72 -70 97 -40 95 28 -1 230
-258 369 -471 59 -90 93 -124 79 -80 -3 9 -15 51 -25 92 -30 114 -56 192 -108
332 l-48 128 -50 0 c-96 0 -150 55 -150 155 0 57 -2 62 -28 75 -32 17 -572
382 -661 447 -32 24 -66 42 -75 42 -9 -1 -49 -14 -90 -28z m849 -641 c0 -13
-38 -32 -57 -28 -15 3 -15 5 1 21 19 18 56 23 56 7z"/>
<path d="M6310 7596 c-1 -11 -7 -32 -14 -45 -12 -22 -8 -32 48 -130 34 -58 90
-168 125 -244 44 -93 68 -134 75 -127 5 5 37 10 69 10 56 0 62 -2 99 -40 22
-22 43 -38 47 -36 3 2 71 14 151 26 80 12 149 25 153 30 20 18 -295 281 -487
407 -247 162 -266 173 -266 149z"/>
<path d="M3834 7557 c-49 -29 -138 -86 -197 -125 -180 -122 -491 -382 -470
-395 5 -3 76 -15 158 -28 83 -12 152 -25 155 -30 3 -5 14 5 24 22 19 32 85 69
121 68 11 0 37 -6 58 -13 33 -12 37 -12 37 3 0 18 143 304 199 399 35 60 36
63 18 114 l-13 38 -90 -53z"/>
<path d="M4184 7488 c-47 -29 -105 -33 -155 -11 l-44 19 -74 -135 c-41 -75
-92 -176 -113 -226 -22 -49 -44 -96 -50 -103 -24 -28 3 -16 120 57 67 42 177
108 243 146 66 39 148 87 181 108 l61 38 -39 32 c-21 17 -53 45 -70 62 -31 30
-32 30 -60 13z"/>
<path d="M6000 7480 c-14 -14 -45 -42 -70 -63 -54 -45 -65 -34 135 -149 77
-45 202 -119 277 -165 76 -47 143 -83 149 -81 9 3 -118 267 -205 424 -33 60
-33 60 -55 43 -12 -10 -42 -21 -67 -25 -36 -5 -54 -2 -92 17 l-47 24 -25 -25z"/>
<path d="M2625 6938 c-59 -54 -93 -92 -98 -112 -9 -34 -41 -73 -66 -81 -9 -3
-31 -31 -48 -63 -17 -31 -46 -77 -64 -102 -18 -24 -33 -59 -35 -77 -2 -18 -7
-41 -12 -50 -8 -13 3 -26 52 -65 33 -27 64 -55 69 -63 12 -22 -10 -27 -38 -9
-14 9 -27 15 -29 13 -4 -6 -27 -163 -33 -229 l-5 -55 67 67 c58 58 65 69 56
87 -18 33 -13 103 12 146 16 29 36 47 73 64 l50 24 28 111 c28 107 95 317 131
403 18 45 15 73 -7 73 -7 -1 -53 -38 -103 -82z"/>
<path d="M3500 6826 c0 -10 -75 -60 -197 -133 -211 -124 -501 -303 -545 -336
-23 -17 -25 -23 -16 -49 15 -42 4 -104 -25 -141 l-24 -32 66 -82 c52 -65 70
-81 86 -77 11 3 45 8 76 11 l55 5 12 44 c17 63 106 273 159 377 32 63 50 87
62 85 9 -2 16 -8 15 -13 0 -6 -30 -71 -66 -145 -71 -146 -156 -366 -144 -377
3 -4 26 14 49 39 42 47 224 211 266 240 17 12 24 29 28 64 5 54 21 90 50 116
25 23 87 48 118 48 15 0 24 4 21 9 -3 4 8 73 24 152 29 140 29 158 -2 159 -3
0 -20 12 -37 26 -24 20 -31 22 -31 10z"/>
<path d="M6724 6826 c-3 -8 -25 -23 -48 -32 -43 -18 -43 -18 -31 -49 7 -16 23
-85 36 -152 l24 -122 40 -6 c85 -14 145 -82 145 -167 1 -41 4 -45 70 -97 38
-29 114 -96 170 -148 63 -60 100 -89 100 -78 0 29 -100 272 -161 393 -62 123
-69 145 -43 140 10 -2 39 -45 66 -96 59 -110 168 -374 168 -406 0 -22 3 -23
48 -18 33 3 59 -1 79 -11 l30 -16 32 47 c17 26 44 64 61 86 l30 38 -27 45
c-23 39 -25 52 -20 108 5 48 3 64 -8 68 -7 3 -51 30 -97 60 -119 78 -330 207
-420 258 -129 73 -233 144 -230 157 3 17 -7 15 -14 -2z"/>
<path d="M2269 6405 c-8 -8 -33 -16 -56 -17 l-43 -3 -46 -125 c-48 -130 -148
-506 -138 -521 13 -21 44 -6 80 39 21 26 78 88 126 138 l88 91 5 79 c2 43 13
122 23 175 l18 96 -21 31 c-19 27 -23 29 -36 17z"/>
<path d="M7714 6116 c-39 -21 -40 -23 -28 -51 17 -43 54 -268 54 -331 0 -47 3
-54 19 -54 26 0 71 -55 71 -86 0 -34 -26 -81 -51 -94 -19 -11 -20 -17 -14
-133 8 -162 -6 -385 -26 -398 -10 -6 -8 -9 11 -9 43 0 98 -43 125 -97 1 -2 52
17 113 41 62 24 112 41 112 38 0 -4 5 1 11 10 6 12 6 23 -1 35 -13 24 -50 121
-50 133 0 6 7 10 15 10 19 0 45 -62 46 -109 0 -30 2 -33 9 -15 10 26 48 54 72
54 31 0 38 44 45 255 l6 203 -22 7 c-49 15 -76 102 -47 153 12 23 3 33 -204
243 -119 120 -218 218 -220 218 -3 -1 -23 -11 -46 -23z m149 -213 c52 -117 97
-244 140 -397 42 -148 43 -157 26 -166 -20 -11 -17 -18 -53 125 -28 111 -110
343 -145 413 -32 64 -35 82 -13 82 14 0 27 -16 45 -57z m234 -595 c30 -34 34
-64 11 -93 -24 -31 -70 -33 -98 -5 -26 26 -25 60 1 94 25 32 59 33 86 4z"/>
<path d="M2649 6109 c-8 -5 -25 -9 -39 -9 -25 0 -26 -3 -43 -127 -19 -132 -33
-303 -26 -303 3 0 50 25 104 55 55 30 103 55 106 55 3 0 9 27 12 61 3 36 12
68 22 79 17 18 16 22 -22 67 -22 26 -53 67 -70 90 -22 30 -33 39 -44 32z"/>
<path d="M7552 6091 c-6 -14 -33 -53 -60 -85 l-48 -60 18 -35 c10 -19 18 -56
18 -81 l0 -45 101 -57 c55 -31 107 -54 115 -51 13 5 14 18 9 72 -8 70 -52 342
-57 345 -2 1 -21 6 -44 12 -39 10 -41 9 -52 -15z"/>
<path d="M7445 5726 c-17 -18 -38 -37 -49 -43 -18 -10 -18 -17 -6 -159 7 -82
11 -173 9 -202 -3 -38 0 -52 9 -52 26 0 62 -48 62 -83 0 -37 -29 -82 -58 -91
-14 -5 -18 -19 -20 -73 -5 -137 -40 -385 -55 -395 -7 -5 -1 -8 15 -8 14 0 40
-11 57 -25 29 -25 31 -25 49 -8 10 10 48 42 84 72 l65 54 -14 46 c-7 26 -10
60 -7 79 8 44 66 109 104 117 l28 6 7 166 c4 91 4 209 1 262 -6 88 -9 98 -33
115 -36 27 -54 76 -43 115 6 23 5 31 -4 31 -13 0 -158 87 -166 100 -3 5 -19
-6 -35 -24z"/>
<path d="M5070 6408 c-55 -121 -352 -777 -487 -1078 -58 -129 -120 -267 -138
-306 -41 -89 -95 -211 -95 -216 0 -2 346 -3 770 -3 568 0 770 3 770 11 0 7
-47 115 -104 240 -57 126 -157 346 -221 489 -341 756 -434 955 -445 955 -4 0
-26 -42 -50 -92z m68 -554 l2 -269 40 -17 c70 -29 98 -106 66 -183 -40 -94
-192 -102 -246 -12 -43 69 -13 165 60 195 l40 17 0 266 c0 146 3 269 7 273 24
23 28 -14 31 -270z"/>
<path d="M6680 2010 c8 -5 20 -10 25 -10 6 0 3 5 -5 10 -8 5 -19 10 -25 10 -5
0 -3 -5 5 -10z"/>
<path d="M6807 1979 c7 -7 15 -10 18 -7 3 3 -2 9 -12 12 -14 6 -15 5 -6 -5z"/>
<path d="M6312 1871 c-11 -6 -10 -10 4 -15 9 -3 19 -4 22 -1 3 3 0 5 -7 5 -7
0 -9 5 -6 10 7 12 4 12 -13 1z"/>
<path d="M6220 1820 c0 -5 5 -10 10 -10 6 0 10 5 10 10 0 6 -4 10 -10 10 -5 0
-10 -4 -10 -10z"/>
<path d="M6458 1823 c7 -3 16 -2 19 1 4 3 -2 6 -13 5 -11 0 -14 -3 -6 -6z"/>
<path d="M6505 1820 c-3 -6 1 -7 9 -4 18 7 21 14 7 14 -6 0 -13 -4 -16 -10z"/>
<path d="M6418 1813 c7 -3 16 -2 19 1 4 3 -2 6 -13 5 -11 0 -14 -3 -6 -6z"/>
<path d="M6050 1795 c0 -8 29 -12 39 -5 9 5 4 8 -13 8 -14 0 -26 -2 -26 -3z"/>
<path d="M5975 1770 c-16 -7 -17 -9 -3 -9 9 -1 20 4 23 9 7 11 7 11 -20 0z"/>
<path d="M6198 1733 c7 -3 16 -2 19 1 4 3 -2 6 -13 5 -11 0 -14 -3 -6 -6z"/>
<path d="M5718 1713 c7 -3 16 -2 19 1 4 3 -2 6 -13 5 -11 0 -14 -3 -6 -6z"/>
<path d="M5661 1706 c2 -2 15 -9 29 -15 24 -11 24 -11 6 3 -16 13 -49 24 -35
12z"/>
<path d="M6168 1703 c6 -2 18 -2 25 0 6 3 1 5 -13 5 -14 0 -19 -2 -12 -5z"/>
<path d="M5748 1693 c7 -3 16 -2 19 1 4 3 -2 6 -13 5 -11 0 -14 -3 -6 -6z"/>
<path d="M5563 1683 c9 -2 23 -2 30 0 6 3 -1 5 -18 5 -16 0 -22 -2 -12 -5z"/>
<path d="M5798 1683 c6 -2 18 -2 25 0 6 3 1 5 -13 5 -14 0 -19 -2 -12 -5z"/>
<path d="M5368 1663 c6 -2 18 -2 25 0 6 3 1 5 -13 5 -14 0 -19 -2 -12 -5z"/>
<path d="M5604 1659 c-3 -5 6 -9 20 -9 31 0 34 6 6 13 -11 3 -23 1 -26 -4z"/>
<path d="M6028 1663 c6 -2 18 -2 25 0 6 3 1 5 -13 5 -14 0 -19 -2 -12 -5z"/>
<path d="M5370 1640 c-11 -7 -7 -10 18 -10 20 0 31 4 27 10 -8 13 -26 13 -45
0z"/>
<path d="M5683 1635 c4 -13 77 -19 77 -7 0 6 -18 12 -40 14 -25 2 -39 0 -37
-7z"/>
<path d="M5945 1640 c-27 -7 -28 -8 -5 -8 14 0 34 3 45 8 25 11 2 11 -40 0z"/>
<path d="M5560 1630 c0 -5 7 -10 15 -10 8 0 15 5 15 10 0 6 -7 10 -15 10 -8 0
-15 -4 -15 -10z"/>
<path d="M5368 1613 c12 -2 30 -2 40 0 9 3 -1 5 -23 4 -22 0 -30 -2 -17 -4z"/>
<path d="M5386 1585 c-3 -8 -12 -12 -21 -9 -9 4 -15 1 -15 -9 0 -11 9 -15 33
-14 25 2 33 7 35 25 4 25 -22 31 -32 7z"/>
<path d="M5525 1585 c39 -10 44 -13 21 -14 -16 -1 -27 -3 -24 -6 3 -4 30 -3
59 1 l54 8 -60 12 c-77 17 -115 16 -50 -1z"/>
<path d="M5628 1593 c7 -3 16 -2 19 1 4 3 -2 6 -13 5 -11 0 -14 -3 -6 -6z"/>
<path d="M5448 1543 c6 -2 18 -2 25 0 6 3 1 5 -13 5 -14 0 -19 -2 -12 -5z"/>
<path d="M2863 2385 c0 -8 4 -12 9 -9 5 3 6 10 3 15 -9 13 -12 11 -12 -6z"/>
<path d="M3365 2140 c-3 -6 1 -7 9 -4 18 7 21 14 7 14 -6 0 -13 -4 -16 -10z"/>
<path d="M3555 1910 c3 -6 20 -10 37 -10 38 0 34 5 -10 13 -21 4 -31 3 -27 -3z"/>
<path d="M3870 1856 c0 -7 50 -13 55 -7 2 4 -10 8 -26 9 -16 1 -29 1 -29 -2z"/>
<path d="M3710 1826 c0 -2 7 -7 16 -10 8 -3 12 -2 9 4 -6 10 -25 14 -25 6z"/>
<path d="M3801 1817 c2 -1 13 -9 24 -17 19 -14 19 -14 6 3 -7 9 -18 17 -24 17
-6 0 -8 -1 -6 -3z"/>
<path d="M3900 1769 c0 -5 5 -7 10 -4 6 3 10 8 10 11 0 2 -4 4 -10 4 -5 0 -10
-5 -10 -11z"/>
<path d="M4090 1770 c8 -5 20 -10 25 -10 6 0 3 5 -5 10 -8 5 -19 10 -25 10 -5
0 -3 -5 5 -10z"/>
<path d="M3950 1740 c-11 -8 -8 -9 14 -4 22 5 27 4 21 -5 -5 -10 4 -11 41 -5
62 8 69 14 18 14 -21 0 -48 3 -59 5 -11 3 -27 1 -35 -5z"/>
<path d="M4340 1740 c0 -5 5 -10 11 -10 5 0 7 5 4 10 -3 6 -8 10 -11 10 -2 0
-4 -4 -4 -10z"/>
<path d="M4045 1710 c-4 -6 3 -10 14 -10 25 0 27 6 6 13 -8 4 -17 2 -20 -3z"/>
<path d="M4390 1690 c-18 -12 -2 -12 25 0 13 6 15 9 5 9 -8 0 -22 -4 -30 -9z"/>
<path d="M4508 1695 c-2 -3 -26 -7 -52 -10 -26 -2 -54 -9 -63 -14 -11 -6 -21
-4 -31 5 -7 8 -21 13 -30 13 -15 -1 -15 -2 1 -6 9 -2 17 -8 17 -13 0 -12 -34
-30 -57 -30 -15 1 -13 3 6 14 l24 14 -22 7 c-12 4 -25 4 -28 1 -4 -3 2 -6 13
-7 10 -1 1 -7 -21 -14 l-40 -12 45 -7 c32 -5 56 -3 82 8 63 27 148 18 148 -16
0 -4 -15 -8 -32 -8 -18 0 -40 -5 -48 -10 -11 -7 -8 -10 16 -10 55 0 94 12 94
28 0 12 3 13 11 5 16 -16 -10 -41 -36 -35 -13 3 -17 1 -10 -5 12 -13 69 -27
62 -16 -3 4 7 8 21 9 15 1 48 5 74 9 26 4 55 4 65 0 28 -12 43 -14 43 -5 0 4
-7 11 -16 14 -10 4 -14 12 -10 22 5 13 1 15 -19 10 -15 -4 -40 0 -58 8 -35 15
-151 31 -128 17 18 -11 -2 -23 -24 -15 -13 5 -14 8 -3 15 10 7 10 9 -2 10 -8
0 -1 7 15 14 17 8 23 14 14 15 -9 0 -18 -2 -21 -5z"/>
<path d="M4198 1673 c7 -3 16 -2 19 1 4 3 -2 6 -13 5 -11 0 -14 -3 -6 -6z"/>
<path d="M4640 1581 c-34 -7 -33 -8 21 -15 30 -4 66 -6 80 -3 14 2 3 5 -26 7
-45 2 -47 3 -20 10 27 7 27 8 5 8 -14 -1 -41 -4 -60 -7z"/>
<path d="M4490 2113 c8 -3 19 -11 23 -17 6 -7 7 -6 4 4 -2 8 -12 16 -23 17
-13 2 -15 1 -4 -4z"/>
</g>
</svg>
